<svg width="12" height="7" viewBox="0 0 12 7" fill="none" xmlns="http://www.w3.org/2000/svg">
<path d="M11.2826 6.28309C11.2129 6.35301 11.1301 6.40849 11.0389 6.44634C10.9478 6.4842 10.85 6.50368 10.7513 6.50368C10.6526 6.50368 10.5549 6.4842 10.4637 6.44634C10.3725 6.40849 10.2897 6.35301 10.2201 6.28309L5.75193 1.81497L1.28255 6.28309C1.14165 6.42399 0.950558 6.50314 0.751301 6.50314C0.552044 6.50314 0.360947 6.42399 0.220051 6.28309C0.0791548 6.1422 2.96917e-09 5.9511 0 5.75184C-2.96917e-09 5.55258 0.0791548 5.36149 0.220051 5.22059L5.22005 0.220591C5.28973 0.150671 5.37252 0.0951937 5.46369 0.0573397C5.55485 0.0194856 5.65259 0 5.7513 0C5.85001 0 5.94775 0.0194856 6.03892 0.0573397C6.13008 0.0951937 6.21287 0.150671 6.28255 0.220591L11.2826 5.22059C11.3525 5.29027 11.4079 5.37306 11.4458 5.46423C11.4837 5.55539 11.5031 5.65313 11.5031 5.75184C11.5031 5.85055 11.4837 5.94829 11.4458 6.03946C11.4079 6.13062 11.3525 6.21341 11.2826 6.28309Z" fill="#231F1F"/>
</svg>
