<svg width="16" height="16" viewBox="0 0 16 16" fill="none" xmlns="http://www.w3.org/2000/svg">
<path d="M14.4144 3.09564C14.3375 2.91784 14.21 2.76658 14.0477 2.66068C13.8855 2.55477 13.6957 2.49891 13.5019 2.50002H2.50194C2.30839 2.5004 2.11912 2.55694 1.95708 2.66277C1.79503 2.76861 1.66719 2.91919 1.58904 3.09626C1.5109 3.27332 1.48581 3.46926 1.51684 3.6603C1.54786 3.85134 1.63365 4.02928 1.76381 4.17252L1.76881 4.17814L6.00194 8.69814V13.5C6.00189 13.681 6.05097 13.8586 6.14393 14.0139C6.2369 14.1692 6.37026 14.2963 6.5298 14.3818C6.68935 14.4672 6.86909 14.5078 7.04987 14.4991C7.23065 14.4904 7.40568 14.4329 7.55631 14.3325L9.55631 12.9988C9.69341 12.9074 9.80583 12.7837 9.88357 12.6384C9.96132 12.4932 10.002 12.331 10.0019 12.1663V8.69814L14.2357 4.17814L14.2407 4.17252C14.3722 4.02993 14.4588 3.85176 14.4897 3.66025C14.5206 3.46873 14.4945 3.27236 14.4144 3.09564ZM9.13819 8.16127C9.05169 8.25297 9.00303 8.37396 9.00194 8.50002V12.1663L7.00194 13.5V8.50002C7.00198 8.37305 6.95371 8.25083 6.86694 8.15814L2.50194 3.50002H13.5019L9.13819 8.16127Z" fill="#231F1F"/>
</svg>
