<svg width="16" height="16" viewBox="0 0 16 16" fill="none" xmlns="http://www.w3.org/2000/svg">
<path d="M14.3519 13.6444L11.2226 10.5157C12.1296 9.42676 12.5819 8.03006 12.4853 6.61615C12.3888 5.20224 11.7509 3.87997 10.7043 2.92442C9.65767 1.96887 8.28297 1.4536 6.86613 1.4858C5.4493 1.518 4.09942 2.09519 3.0973 3.0973C2.09519 4.09942 1.518 5.4493 1.4858 6.86613C1.4536 8.28297 1.96887 9.65767 2.92442 10.7043C3.87997 11.7509 5.20224 12.3888 6.61615 12.4853C8.03006 12.5819 9.42676 12.1296 10.5157 11.2226L13.6444 14.3519C13.6909 14.3984 13.746 14.4352 13.8067 14.4604C13.8674 14.4855 13.9325 14.4985 13.9982 14.4985C14.0639 14.4985 14.1289 14.4855 14.1896 14.4604C14.2503 14.4352 14.3055 14.3984 14.3519 14.3519C14.3984 14.3055 14.4352 14.2503 14.4604 14.1896C14.4855 14.1289 14.4985 14.0639 14.4985 13.9982C14.4985 13.9325 14.4855 13.8674 14.4604 13.8067C14.4352 13.746 14.3984 13.6909 14.3519 13.6444ZM2.49819 6.99819C2.49819 6.10817 2.76211 5.23814 3.25658 4.49812C3.75104 3.7581 4.45385 3.18133 5.27611 2.84073C6.09838 2.50014 7.00318 2.41102 7.8761 2.58466C8.74901 2.75829 9.55083 3.18687 10.1802 3.81621C10.8095 4.44555 11.2381 5.24737 11.4117 6.12028C11.5854 6.9932 11.4962 7.898 11.1556 8.72026C10.8151 9.54253 10.2383 10.2453 9.49826 10.7398C8.75823 11.2343 7.88821 11.4982 6.99819 11.4982C5.80512 11.4969 4.6613 11.0223 3.81767 10.1787C2.97404 9.33508 2.49951 8.19126 2.49819 6.99819Z" fill="#231F1F"/>
</svg>
